<svg xmlns="http://www.w3.org/2000/svg" width="220.99996" height="301.30199" viewBox="0 0 220.99996 301.30199">
  <g id="Layer_2" data-name="Layer 2">
    <g id="Layer_1-2" data-name="Layer 1">
      <g>
        <g id="Group">
          <path d="M55.375,267.043c-5.446-3.706-10.513-7.185-10.513-14.067,0-6.126,4.614-8.319,9-8.319,5.748,0,9.302,2.949,10.361,8.546l.076.378h1.285v-.454c-.075-1.134-.075-3.101-.075-4.235,0-1.966.075-3.328.227-5.067l.075-.53-.529.076a6.472,6.472,0,0,1-1.21.076,19.43691,19.43691,0,0,1-4.008-.53,34.64826,34.64826,0,0,0-6.278-.68c-8.697,0-14.747,5.823-14.747,14.218,0,8.848,6.201,13.008,12.176,17.092,5.672,3.857,11.042,7.487,11.042,14.823,0,6.882-5.067,9.983-10.059,9.983-5.823,0-11.722-3.177-11.722-9.303a13.50088,13.50088,0,0,1,.151-1.663l.076-.757H39.568l-.151.227a13.29125,13.29125,0,0,0-.983,5.067,16.14361,16.14361,0,0,0,.227,2.798c.075.832.151,1.664.151,2.496a13.38374,13.38374,0,0,1-.076,1.891l-.151.605.605-.076a5.03718,5.03718,0,0,1,1.059-.075,21.86693,21.86693,0,0,1,4.538.605,28.58712,28.58712,0,0,0,6.579.832c9.681,0,16.487-6.656,16.487-16.109C67.853,275.589,61.5,271.202,55.375,267.043Z" style="fill: #900"/>
          <path d="M142.801,242.237c-18.151,0-29.042,15.201-29.042,29.797,0,14.294,10.664,29.041,28.437,29.041,16.184,0,28.889-12.857,28.889-29.268C171.085,255.245,158.682,242.237,142.801,242.237Zm20.192,30.1c0,16.108-8.016,26.167-20.873,26.167-12.706,0-20.268-9.983-20.268-26.621,0-19.89,10.512-26.999,20.268-26.999C151.8,244.808,162.993,252.068,162.993,272.337Z" style="fill: #900"/>
          <path d="M220.773,299.865c-4.613-1.588-9.983-11.193-13.915-18.226-2.118-3.857-3.933-6.958-5.219-8.319,6.655-2.647,10.664-8.092,10.664-14.521,0-9.907-7.639-16.336-19.361-16.336-.832,0-2.118,0-3.555.076-1.663.076-3.478.076-4.764.076-3.479,0-4.992,0-7.714-.152h-.454v1.211l.378.075c2.647.378,3.479,1.437,3.479,6.807V293.21c0,6.201-.983,6.353-3.63,6.806l-.378.076v1.21h.454c1.588-.076,3.857-.151,6.957-.151,3.252,0,5.975.075,6.958.151h.454v-1.21l-.378-.076c-2.647-.453-3.63-.605-3.63-6.806V275.286h4.689a18.59363,18.59363,0,0,0,3.252-.302c1.361,1.361,2.949,4.386,3.932,6.201.227.378.378.756.53.983,9.453,17.773,10.512,18.832,19.058,19.134a16.40225,16.40225,0,0,0,2.042-.076l.378-.075v-1.135Zm-33.654-54.15a18.267,18.267,0,0,1,5.369-.68c7.412,0,12.252,5.748,12.252,14.672s-4.386,12.932-14.218,12.932h-3.403Z" style="fill: #900"/>
          <path d="M114.894,242.161h-.605c-3.782.076-23.596.378-41.444,0h-.378l-.076.302c-.378,1.437-.681,2.723-1.059,3.933-.454,1.513-.832,2.874-1.134,4.387l-.076.529h1.21l.151-.227c2.269-4.765,5.597-4.84,17.924-4.84v46.889c0,6.277-.983,6.429-3.63,6.807l-.378.075v1.21h.454c1.588-.075,3.857-.151,6.882-.151,3.252,0,5.899.076,6.882.151h.454v-1.21l-.378-.075c-2.647-.454-3.631-.605-3.631-6.807V246.245c13.614,0,15.58.529,15.58,2.496a3.95769,3.95769,0,0,1-.151,1.058l-.152.53h1.362l.075-.378c.227-1.21,1.135-5.067,1.815-7.261Z" style="fill: #900"/>
          <path d="M24.518,242.312c-2.798,0-5.974-.075-7.638-.151h-.454v1.21l.378.076c2.798.453,4.462.68,4.462,6.579v34.789c0,6.504-3.1,13.462-8.016,13.462a15.01576,15.01576,0,0,1-2.647-.227,12.36942,12.36942,0,0,1-6.958-5.067c-.151-.227-.378-.529-.529-.756a17.7126,17.7126,0,0,1-2.118-4.084.59934.59934,0,0,0-.605-.378.51946.51946,0,0,0-.378.605l1.134,9.151a.53792.53792,0,0,0,.227.453,20.47856,20.47856,0,0,0,8.244,2.874h0a17.31338,17.31338,0,0,0,3.1.227h.832c8.546,0,14.218-6.882,14.218-17.167V250.026c0-5.747,1.286-5.974,4.009-6.579l.453-.076v-1.21h-.453C30.266,242.237,27.165,242.312,24.518,242.312Z" style="fill: #900"/>
        </g>
        <rect x="5.83796" width="213.42201" height="213.725" style="fill: #900"/>
        <g id="Group-2" data-name="Group">
          <path d="M45.24,155.642a26.2402,26.2402,0,0,0,9.908,4.009c7.865,1.285,14.974,1.664,20.192.454,4.538-.984,6.051-2.269,6.656-1.286.68,1.059-2.194,3.933-11.723,5.445-9.907,1.588-15.957-.681-15.957-.681s.075,2.118,3.554,4.765c3.555,2.723,5.899,3.328,8.017,5.899,1.966,2.42.681,4.84,1.739,4.991.983.152,1.286-2.268,2.345-4.764a7.67659,7.67659,0,0,0,.151-5.067s3.555,3.025,10.512,2.344c4.916-.529,7.714-1.361,7.412-2.344-.227-.757-1.286-.378-3.857-.832a6.56764,6.56764,0,0,1-3.555-1.513,39.79056,39.79056,0,0,0,9.454-4.991c5.218-3.63,8.621-8.168,7.865-9.227s-2.949.076-5.596.832a17.61824,17.61824,0,0,1-4.916.983s-.378-.529,1.21-2.42c2.269-2.647,4.311-2.874,4.235-3.932-.076-1.059-3.479-2.269-12.176,1.663a51.39007,51.39007,0,0,0-6.428,3.555,56.131,56.131,0,0,0,1.815-6.882c.453-2.799,1.588-7.941.529-8.319-.983-.378-.756.529-2.723,2.949-1.436,1.664-1.815,2.42-2.495,2.193-.908-.378-.681-1.89-1.21-3.479-.454-1.512-1.74-3.554-2.269-3.327-1.135.605-1.815,9-4.235,11.647a7.895,7.895,0,0,1-3.025,1.89,14.98208,14.98208,0,0,1-5.446.908,17.30778,17.30778,0,0,1-6.201-1.135c-2.042-.756-5.975-2.193-8.471-6.201,0,0-.302-.605-.378-.605h0a22.46586,22.46586,0,0,1-6.806-1.966c.68,2.041,1.815,4.688,2.571,6.655,2.874,6.806,6.807,18.302,3.025,27.377-4.462,10.815-14.823,12.933-15.957,10.588-.908-1.891,7.563-1.966,12.1-10.966,3.706-7.336.908-16.563.908-16.563s0,7.941-5.748,13.311c-6.428,6.05-10.664,3.252-11.571,4.084-.983.983.605,1.739,2.193,2.496a21.25183,21.25183,0,0,0,2.723.907,19.308,19.308,0,0,1-4.462,3.025c-2.496,1.21-3.857,1.74-4.009,2.647-.075.681,3.328,4.084,6.656,5.521a27.17986,27.17986,0,0,0,7.26,1.815s.303-.075-.756,1.815c-1.135,1.967-2.345,2.798-1.815,3.555.756,1.134,1.663.907,6.352-1.967,4.689-2.949,6.051-4.84,6.051-4.84a22.85,22.85,0,0,0-.605,2.269c-.454,1.815-1.437,2.496-.681,3.252.908.908,5.823-4.613,8.773-10.89a33.00518,33.00518,0,0,0,2.874-18.68C48.795,163.054,46.602,158.289,45.24,155.642Z" style="fill: #fff"/>
          <path d="M122.684,139.382V56.192s-.605-17.924.68-22.386a24.00741,24.00741,0,0,1,5.597-9.529c3.63-3.782,11.268-4.992,11.268-4.992,2.193-.378,2.723-1.437,2.496-2.496a1.91685,1.91685,0,0,0-1.588-1.739l-54.15-.076a2.05541,2.05541,0,0,0-1.588,1.815c-.151,1.059.302,2.194,2.496,2.496,0,0,7.638,1.21,11.268,4.992a23.15976,23.15976,0,0,1,5.597,9.529c1.285,4.537.68,22.386.68,22.386l-1.21,82.964c0,3.554.378,18.831-.453,24.352-1.211,7.638-2.95,14.142-7.639,19.134-4.689,5.067-9.075,6.655-15.428,6.655-6.428,0-10.588-1.966-15.126-5.521-4.537-3.554-13.159-11.722-13.159-11.722l8.244,26.772s16.033,2.269,24.503.832c7.563-1.286,13.84-3.101,21.857-10.361,8.924-8.017,12.251-19.588,13.688-25.487C122.91,155.416,122.684,139.382,122.684,139.382Z" style="fill: #fff"/>
          <path d="M144.389,74.72a61.17316,61.17316,0,0,0-6.277-6.201,57.99362,57.99362,0,0,0-9.303-5.672v7.336a22.11388,22.11388,0,0,1,7.639,4.916c2.42,2.268,4.916,4.915,6.806,7.033Z" style="fill: #fff"/>
          <path d="M139.322,96.426a64.80041,64.80041,0,0,1-2.194-9c-.831-5.218-.605-6.353-.605-6.353-1.134-1.21-4.31-4.311-6.201-4.991,0,0-.529,3.932.681,12.327a97.49358,97.49358,0,0,0,2.344,10.739Z" style="fill: #fff"/>
          <path d="M194.606,165.096a39.41854,39.41854,0,0,0-9.605-4.235c1.437-3.403,4.008-4.008,4.084-4.387.076-.378-2.193-1.361-4.16-.907a7.88387,7.88387,0,0,0-4.083,3.025c-.379,1.059-.454,1.966-1.513,4.991,1.891.832,6.731,2.95,9.075,4.084,6.807,3.328,9.681,7.109,10.966,11.269a10.53112,10.53112,0,0,1-.075,5.748c-1.588,5.596-6.504,9.151-11.193,8.016-3.177-.756-5.597-2.42-6.731-4.613a7.76766,7.76766,0,0,1-.303-6.126,4.33311,4.33311,0,0,1,2.345-2.723,3.55335,3.55335,0,0,1,3.252.227,3.61806,3.61806,0,0,1,2.117,3.706c0,.681.076,1.21.53,1.361a1.08016,1.08016,0,0,0,1.134-.227,4.51233,4.51233,0,0,0,1.513-3.403c.151-1.966-.983-4.689-4.689-6.277-3.63-1.512-8.395.605-10.21,4.462a15.02659,15.02659,0,0,0-.302,11.798,9.98069,9.98069,0,0,0-1.664,2.193,5.92134,5.92134,0,0,0-.832,4.236,1.03167,1.03167,0,0,0,.227.302c.227.076.454-.151.832-.529a8.22383,8.22383,0,0,1,1.89-1.513,5.30241,5.30241,0,0,1,3.479-.605c2.95,1.891,5.748,3.101,9,3.101a14.514,14.514,0,0,0,4.235-.681c4.916-1.437,8.47-5.445,10.059-11.193,0-.075.075-.151.075-.227a17.14707,17.14707,0,0,0-.075-9.378C203.53,174.398,201.639,169.558,194.606,165.096Z" style="fill: #fff"/>
          <path d="M44.938,106.635a55.34391,55.34391,0,0,1,4.159-11.722,7.14545,7.14545,0,0,0-5.974-1.588,17.442,17.442,0,0,0-2.798,6.504C41.837,104.291,43.652,106.106,44.938,106.635Z" style="fill: #fff"/>
          <path d="M35.56,115.938a28.60766,28.60766,0,0,0-.983,7.184c.227.757,4.764,3.857,6.579,4.009a19.26442,19.26442,0,0,1,.454-5.521A15.0588,15.0588,0,0,1,35.56,115.938Z" style="fill: #fff"/>
          <path d="M205.269,95.291c2.572-1.664,3.706-3.025,3.328-3.857-.151-.302-1.361-.454-2.647-.529a31.74666,31.74666,0,0,1-6.201-1.21,13.08314,13.08314,0,0,1-7.941-6.958c-.908-2.042-1.21-5.218,1.739-8.697h.076l.529-.53c4.538-4.084,11.344-10.209,12.025-24.427a34.488,34.488,0,0,0-4.992-19.059,6.18434,6.18434,0,0,1-.831-1.89c0-.605.68-1.059,1.588-1.589a12.77764,12.77764,0,0,0,3.63-3.1c1.815-2.496,2.42-4.462,2.269-5.143,0-.076-.076-.076-.076-.151-.151-.076-.756.227-1.437.529a21.62124,21.62124,0,0,1-3.857,1.513c-2.949.68-6.958-.076-10.89-.984-.454-.075-.908-.226-1.437-.302a62.7096,62.7096,0,0,0-14.445-1.664,41.08724,41.08724,0,0,0-30.554,13.538c-9.151,9.831-12.781,24.881-13.613,28.436l5.748,3.554s.075-.302.227-.756l-.227.756c.454-.454,2.193-1.285,6.428-1.815a17.31313,17.31313,0,0,1,6.277,0c1.135.303,1.967.53,2.118.151.529-1.361-2.647-4.613-5.294-5.974a11.34692,11.34692,0,0,0-6.504-.756c2.042-5.446,4.916-12.177,7.638-15.731,4.387-5.672,13.84-15.201,29.117-14.596,15.958.605,22.991,13.083,22.84,25.108a23.41255,23.41255,0,0,1-4.84,13.764,17.31213,17.31213,0,0,1-11.95,7.11c-7.714.756-14.671-4.236-15.882-11.496-.831-4.991-.075-9.302,2.042-12.1a9.40233,9.40233,0,0,1,7.261-3.555,5.79109,5.79109,0,0,1,4.689,1.815,6.72852,6.72852,0,0,1,1.663,4.916,5.346,5.346,0,0,1-3.478,5.143c-.757.378-1.21.605-1.135,1.058a1.7987,1.7987,0,0,0,.756,1.286,5.39979,5.39979,0,0,0,4.538.151c2.269-.756,4.916-3.705,4.765-9.302-.152-5.596-5.143-10.739-10.437-11.117a17.63962,17.63962,0,0,0-14.142,5.596c-.076.076-.152.076-.152,0a10.75634,10.75634,0,0,0-3.479-1.134c-2.722-.378-4.613.378-5.218.983-.151.151-.151.227-.151.227,0,.151.454.378.983.605a11.48988,11.48988,0,0,1,2.874,1.891,9.09429,9.09429,0,0,1,2.722,4.689v.075c-.907,6.958-.605,12.857,4.084,19.21,5.748,7.789,13.84,7.714,17.319,7.638a12.29,12.29,0,0,1,1.967.151h.075a1.83941,1.83941,0,0,1,1.135,1.74,2.52718,2.52718,0,0,1-1.286,2.042c-1.815,1.361-2.193,2.722-1.74,6.05.227,1.815,1.362,3.781,2.572,5.975a23.95918,23.95918,0,0,1,2.874,6.655,27.85135,27.85135,0,0,1-.076,11.193c-.151.756-.227,1.21-.076,1.437a.59089.59089,0,0,0,.53.227c1.059,0,3.252-1.664,4.613-3.782.908-1.361.908-3.479.908-5.067,0-1.134,0-1.89.302-2.193a.565.565,0,0,1,.378-.076c3.328.681,3.555,6.807,3.404,9.076a6.08174,6.08174,0,0,1-.757,2.42c-.378.756-.529,1.134-.075,1.588.378.454,1.134.227,1.815,0a4.58044,4.58044,0,0,1,.983-.227.944.944,0,0,1,.907.378c.605,1.21-.453,3.252-2.193,4.462q-.453.3405-.907.681c-1.362.908-2.496,1.739-2.345,2.496a.91692.91692,0,0,0,.378.151,8.88031,8.88031,0,0,0,7.336-2.344c3.025-2.95,4.009-6.278,3.479-12.403-.529-6.051-5.596-10.437-5.672-10.437-.076-.076-.076-.076-.076-.151,0-.076.076-.076.152-.076A6.32,6.32,0,0,0,205.269,95.291Z" style="fill: #fff"/>
          <path d="M191.203,135.147h.151A.10491.10491,0,0,0,191.203,135.147Z" style="fill: #fff"/>
          <path d="M195.06,128.114h0c-4.538-1.059-10.966-.53-18.454,7.638a16.5925,16.5925,0,0,0-1.588,2.42c-.151-.605-.378-1.21-.605-1.966a74.57819,74.57819,0,0,0-7.336-14.899,96.92233,96.92233,0,0,0-5.899-8.394,39.18871,39.18871,0,0,1-4.311-6.353c-2.268-4.387-2.722-11.722-1.89-13.008.075-.151.151-.227.302-.227.983.076,1.135.907,1.437,2.647a25.869,25.869,0,0,0,3.403,9.075,35.44135,35.44135,0,0,0,5.219,6.882,36.71061,36.71061,0,0,1,4.235,5.294c3.706,5.446,4.613,7.866,4.613,7.941l.227.681-.076-.756a82.23244,82.23244,0,0,1,0-20.798,51.22469,51.22469,0,0,1,3.858-12.932c.907-2.194,1.436-3.479,1.058-4.009a.72618.72618,0,0,0-.68-.453h-.076c-.908,0-2.269,1.512-3.933,3.327q-.79349.90748-1.588,1.815a33.33752,33.33752,0,0,0-4.689,6.429c-.454-.076-4.235-1.21-4.613-9.303a42.9892,42.9892,0,0,1,.681-11.117c.226-1.286.378-2.496.529-3.857,0-.454-.076-.756-.303-.832-.983-.302-3.63,3.252-5.067,6.126a13.6535,13.6535,0,0,0-1.21,4.235c-.151.832-.227,1.361-.529,1.437a.45421.45421,0,0,1-.303-.076c-.831-.529-2.193-2.873-2.571-7.26a34.40155,34.40155,0,0,1-.076-3.857c0-1.739,0-2.949-.529-3.252a.80329.80329,0,0,0-.907.076c-.832.529-1.816,2.117-2.647,4.386a41.24832,41.24832,0,0,0-1.816,9.529,87.86782,87.86782,0,0,0,0,15.277,25.92272,25.92272,0,0,0-6.882,1.286c-3.479,1.134-9.907,3.933-9.604,5.521.151.756,1.436.605,3.025.378a14.96728,14.96728,0,0,1,3.176-.227,14.80846,14.80846,0,0,1,4.538,1.361,26.43651,26.43651,0,0,0-5.748,4.462c-2.496,2.345-5.218,4.992-3.857,6.958.454.605,1.513.151,3.101-.605,3.1-1.437,8.243-3.781,14.974-1.21,7.563,2.874,12.101,7.336,16.26,16.411a45.95057,45.95057,0,0,1,2.496,8.546h0c1.512,8.168-.227,18.378-7.79,27.68a63.24691,63.24691,0,0,1-9.378,9.605c-9.756,8.168-15.428,9.529-15.957,8.395-.378-.908,6.806-4.916,12.554-9.908a112.43329,112.43329,0,0,0,13.159-12.856s-8.546,6.201-16.335,5.52c-4.538-.453-7.563-4.235-7.941-3.857-1.059,1.135.605,4.236,1.134,5.219a8.02786,8.02786,0,0,0,1.664,2.042s-.303.605-3.025.68c-2.269.076-3.025-1.361-3.328-1.134-.529.454-.151,2.269,1.588,4.008a10.27829,10.27829,0,0,0,3.479,2.345,22.95875,22.95875,0,0,1-6.806.907c-3.328,0-6.58-1.512-7.336-.756-1.21,1.286.907,2.496,2.42,4.008,1.437,1.513,2.344,1.513,2.344,1.513s-.378,1.739-4.84,2.42c-4.764.756-8.697-1.891-9.075-.378-.454,1.815,5.143,6.504,11.798,7.109a23.696,23.696,0,0,0,12.1-2.42s-.075,1.437-2.874,4.613c-2.722,3.101-4.159,2.95-3.63,3.63,1.059,1.437,5.294.756,19.664-12.478a3.70774,3.70774,0,0,0,.075.907c.832,13.462,14.218,10.361,14.143,9.529-.076-.68-2.496-.605-4.689-2.193-2.799-2.042-2.345-3.101-2.345-3.101a4.33624,4.33624,0,0,0,2.345.681c1.663.151,2.647.076,2.722-.605,0-.53-4.537-.908-5.823-5.672a7.89884,7.89884,0,0,1,1.739-6.882c12.025-14.899,13.84-23.369,14.748-29.117h0c.151-1.21.832-7.487,3.63-11.571,0-.076.076-.076.076-.152,2.042-3.252,5.067-6.277,9.529-7.109a6.75077,6.75077,0,0,1,1.664-.226h.378c4.084.453,5.445,2.193,6.428,4.008a8.47236,8.47236,0,0,1-.681,8.319,7.02747,7.02747,0,0,1-1.21,1.361c-.529.454-.983.832-.907,1.286a1.03635,1.03635,0,0,0,.605.756,2.30049,2.30049,0,0,0,1.966-.151l.227-.151c.605-.303,1.059-.53,1.286-.454.075,0,.075.076.075.227.152.832.303,2.042-3.025,4.689a10.47088,10.47088,0,0,1-2.949,1.588c-.681.227-1.059.378-1.21.681a.47633.47633,0,0,0,.075.529c.227.529,1.135.832,2.269.832a3.66828,3.66828,0,0,0,.908-.076c3.857-.529,8.546-3.932,9.831-12.1a15.73973,15.73973,0,0,0-2.647-11.193A13.85822,13.85822,0,0,0,195.06,128.114Z" style="fill: #fff"/>
          <path d="M144.843,126.601a11.81937,11.81937,0,0,1,6.352,1.135c.983.453,1.74.832,2.042.605.681-.303.681-1.059.378-2.042a5.72236,5.72236,0,0,0-2.571-3.177,9.66265,9.66265,0,0,0-5.975-1.437c-6.806.227-10.814,5.673-11.646,6.883a3.69535,3.69535,0,0,0-1.437-1.664c-1.362-.908-2.874-1.286-3.328-.756-.227.302,0,.68.378,1.21a10.5014,10.5014,0,0,1,1.513,2.722,13.73417,13.73417,0,0,1,.227,4.462,30.29085,30.29085,0,0,0,.227,7.336,16.568,16.568,0,0,0,15.655,12.857,11.94478,11.94478,0,0,0,2.873-.303,15.96177,15.96177,0,0,0,8.244-5.294,2.02382,2.02382,0,0,1,.454.379,48.99134,48.99134,0,0,0,6.428,4.764h0a29.23748,29.23748,0,0,0,.908-6.201,57.35389,57.35389,0,0,1-8.773-7.714c-4.009-4.236-5.294-5.597-5.294-5.597h0c-.756-.605-3.328-2.722-6.05-2.798a6.43644,6.43644,0,0,0-3.328.529l.681.983c.226.303,1.437,2.042,3.857,5.143a55.77877,55.77877,0,0,0,6.504,6.882l-.076.152.454.378a9.6739,9.6739,0,0,1-6.202,3.025c-6.579.756-11.268-4.613-11.949-10.134a10.83714,10.83714,0,0,1,2.042-7.941A12.54194,12.54194,0,0,1,144.843,126.601Z" style="fill: #fff"/>
          <path d="M36.694,71.317c10.815,4.008,16.865,1.664,17.168,1.588a.594.594,0,0,1,.756.832l-.075.076c-.908.983-3.177,3.479-4.538,5.294a11.0885,11.0885,0,0,1,3.176.983,16.822,16.822,0,0,1,2.496,1.286A46.82809,46.82809,0,0,1,68.685,68.519c4.235-2.874,11.117-5.597,17.924-7.109l.756-.151-.605.453a18.26338,18.26338,0,0,0-4.84,5.597c-1.664,2.874-3.025,7.033-2.571,8.243l.075.152c.605.226.605.226.908-.152a5.89911,5.89911,0,0,1,.832-1.058,2.20123,2.20123,0,0,1,1.512-.908h.076a1.23084,1.23084,0,0,1,.832.378l.075.076c.379.227.303.605.152,1.512-.227,1.589-.681,4.614.832,7.034,2.042,3.252,3.857,5.369,4.84,5.596.151,0,.227,0,.302-.075.076-.076.454-.454.076-2.345-.378-1.966-1.361-8.773-.303-13.537,1.286-5.899,4.992-11.571,9.756-11.571h.454V55.36c-.907,0-5.672-.378-8.47-3.328a8.35793,8.35793,0,0,1-2.118-6.05,15.38659,15.38659,0,0,1,4.614-10.513c.302-.302,1.285-1.361.983-2.041a1.4402,1.4402,0,0,0-1.286-.832H93.34c-2.269,0-6.277,2.873-7.487,4.764a23.18639,23.18639,0,0,0-2.572,5.597.62044.62044,0,0,1-.378.378,2.31374,2.31374,0,0,1-2.571-.983,3.83981,3.83981,0,0,1-.681-2.572v-.453h0a.32865.32865,0,0,0-.227-.076c-.151,0-.529.076-.907.681-.832,1.361-.076,7.865,2.42,11.344,1.21,1.664,2.193,3.025,2.949,4.008l.152.227-.303.076a37.09237,37.09237,0,0,0-5.37,1.436c-2.873.984-5.898,2.269-8.848,3.479l-.076-.151.076.151c-3.479,1.437-7.033,2.95-10.361,4.009-9.756,3.1-17.546,2.874-22.537-.681-5.143-3.479-10.966-10.059-10.815-21.327a23.89411,23.89411,0,0,1,6.58-15.806,17.10838,17.10838,0,0,1,12.327-5.219h.454c12.327.303,16.562,8.093,16.411,14.672-.151,6.277-3.63,10.361-9.378,10.891A7.25542,7.25542,0,0,1,44.56,42.2a13.77324,13.77324,0,0,1-.681-4.689c-.076-1.285-.076-2.268-.529-2.722-.227-.151-.378-.227-.605-.151a2.92532,2.92532,0,0,0-1.437,1.663,13.71832,13.71832,0,0,0,.227,10.664c1.663,3.554,6.352,6.806,12.176,6.126a15.17144,15.17144,0,0,0,12.781-9.529,15.42906,15.42906,0,0,0,1.512-7.866,13.59855,13.59855,0,0,0-.302-2.193.46325.46325,0,0,1,.076-.454.75129.75129,0,0,1,.378-.302,10.73949,10.73949,0,0,0,6.579-4.311c4.462-6.353,2.799-9.907,2.118-10.89-.529-.832-1.134-1.059-1.286-.984a3.08843,3.08843,0,0,0-.454,1.286c-.453,1.74-1.058,4.387-4.462,5.37-2.949.907-4.991-.53-7.638-2.42h-.076a29.06486,29.06486,0,0,0-6.579-3.782A31.59041,31.59041,0,0,0,43.274,15.05c-11.647,1.059-23.596,9.68-24.125,26.697C18.771,58.536,27.922,68.065,36.694,71.317Z" style="fill: #fff"/>
          <path d="M43.198,139.004c9.454.454,17.395-5.445,20.42-7.638,4.689-3.403,13.235-12.328,13.311-12.403l.151-.151.151.226c0,.076,2.874,4.765,5.748,6.126a9.07091,9.07091,0,0,0,6.126.227c.378-.151.529-.227.529-.302,0-.076-.302-.303-.605-.53a11.23341,11.23341,0,0,1-4.538-7.714c-.453-4.311,8.319-8.394,14.597-9.529l.226-6.126a45.61394,45.61394,0,0,0-5.52.605c-11.193,3.101-18.302,9.908-25.26,16.487-7.412,7.034-14.369,13.689-25.184,13.689h-.227c-4.084,0-8.168-2.042-11.496-5.597a23.10082,23.10082,0,0,1-6.126-16.789c.53-6.731,2.95-12.252,7.034-15.958a17.57876,17.57876,0,0,1,11.647-4.613h.227a15.325,15.325,0,0,1,8.999,3.328,12.78441,12.78441,0,0,1,4.689,9.151,11.23143,11.23143,0,0,1-3.176,8.924,10.92876,10.92876,0,0,1-9.756,2.269c-2.496-.53-4.538-2.647-5.672-4.462a18.58737,18.58737,0,0,1-1.891-4.311,1.01024,1.01024,0,0,0-1.059-.681c-.605.076-1.059.908-1.134,2.269a12.65574,12.65574,0,0,0,9.378,12.479,14.93768,14.93768,0,0,0,18.453-8.849,21.52637,21.52637,0,0,0,1.437-6.05c0-.076.075-.454.378-.529.302-.076.529.226.681.529a6.53673,6.53673,0,0,0,6.05,1.966c2.798-.756,4.008-3.1,5.143-5.445,1.058-2.118,2.117-4.159,4.31-4.462,2.647-.454,3.404,0,3.933.227.303.151.378.227.908-.151a.8842.8842,0,0,0,.302-1.059c-.454-1.437-3.101-3.403-6.655-3.252a8.06516,8.06516,0,0,0-6.202,2.496,11.06894,11.06894,0,0,1-3.252,2.193c-3.781,1.664-5.672,1.134-5.747,1.059H64.45v-.076c-.076-.151-6.353-13.386-20.647-13.386h-.075a21.07549,21.07549,0,0,0-13.613,4.462c-.454.378-.605.454-.756.378a.16567.16567,0,0,1-.076-.227c.151-.605-.908-4.386-1.588-5.823a5.59433,5.59433,0,0,0-3.63-2.723,7.93661,7.93661,0,0,1,1.134,5.294,12.14056,12.14056,0,0,1-1.361,5.067,25.36625,25.36625,0,0,0-1.21,2.95c-2.572,6.957-3.328,10.285-3.404,17.621-.075,8.092,2.42,15.428,7.109,20.798A24.31153,24.31153,0,0,0,43.198,139.004Z" style="fill: #fff"/>
        </g>
      </g>
    </g>
  </g>
</svg>
